<?xml version="1.0" standalone="no"?><!DOCTYPE svg PUBLIC "-//W3C//DTD SVG 1.1//EN" "http://www.w3.org/Graphics/SVG/1.1/DTD/svg11.dtd"><svg t="1586752741300" class="icon" viewBox="0 0 1024 1024" version="1.1" xmlns="http://www.w3.org/2000/svg" p-id="2221" xmlns:xlink="http://www.w3.org/1999/xlink" width="128" height="128"><defs><style type="text/css"></style></defs><path d="M691.2 940.544c-36.352 13.312-71.168 23.552-104.96 30.72 11.264-3.072 22.528-7.168 34.304-11.264 121.856-45.056 140.8-268.8 102.4-339.456 0 0-6.656 45.056-19.456 83.456-6.656 25.6-45.056 19.456-51.2 0-19.456-57.856-64-166.4-153.6-256 0 0 6.656 230.4-57.856 268.8s-115.2-70.656-115.2-70.656S262.656 768 332.8 883.2c35.84 58.368 77.824 88.576 126.976 98.816-105.984-7.168-197.12-59.904-273.92-175.616-128-192-12.8-409.6-12.8-409.6s89.6 192 198.656 121.856 102.4-473.6 102.4-473.6C633.856 192 710.656 384 749.056 486.4c12.8 45.056 70.656 45.056 89.6 6.656 25.6-64 32.256-147.456 32.256-147.456 63.488 128 31.744 518.144-179.712 594.944z" fill="#CC2F30" p-id="2222"></path><path d="M586.24 971.264c-46.08 13.824-88.576 18.432-126.976 10.752 40.448 2.56 82.432-1.024 126.976-10.752z" fill="#FFFFFF" p-id="2223"></path></svg>